<svg id="SvgjsSvg1006" width="1275" height="1034.5750487329435" xmlns="http://www.w3.org/2000/svg" version="1.1" xmlns:xlink="http://www.w3.org/1999/xlink" xmlns:svgjs="http://svgjs.com/svgjs"><defs id="SvgjsDefs1007"><pattern patternUnits="userSpaceOnUse" id="pattern_mark_0" width="300" height="300"><text x="150" y="100" fill="rgba(229,229,229,0.8)" font-size="18" transform="rotate(-45, 150, 150)" style="dominant-baseline: middle; text-anchor: middle;"></text></pattern><pattern patternUnits="userSpaceOnUse" id="pattern_mark_1" width="300" height="300"><text x="150" y="200" fill="rgba(229,229,229,0.8)" font-size="18" transform="rotate(-45, 150, 150)" style="dominant-baseline: middle; text-anchor: middle;"></text></pattern></defs><rect id="svgbackgroundid" width="1275" height="1034.5750487329435" fill="transparent"></rect><rect id="SvgjsRect1009" width="1275" height="1034.5750487329435" fill="url(#pattern_mark_0)"></rect><rect id="SvgjsRect1010" width="1275" height="1034.5750487329435" fill="url(#pattern_mark_1)"></rect><g id="SvgjsG1011" transform="translate(45,119)"><path id="SvgjsPath1012" d="M 0 0L 1205 0L 1205 72L 0 72Z" stroke="rgba(33,41,48,1)" stroke-width="2" fill="none"></path><path id="SvgjsPath1013" d="M 0 0L 80 0L 80 72L 0 72Z" stroke="rgba(33,41,48,1)" stroke-width="2" fill-opacity="1" fill="#ffffff"></path><g id="SvgjsG1014"><text id="SvgjsText1015" font-family="&quot;Microsoft YaHei&quot;, 微软雅黑, Arial" text-anchor="middle" font-size="16px" width="80px" fill="#323232" font-weight="400" align="middle" lineHeight="125%" anchor="middle" family="&quot;Microsoft YaHei&quot;, 微软雅黑, Arial" size="16px" weight="400" font-style="" opacity="1" y="22" transform="rotate(0)"><tspan id="SvgjsTspan1016" dy="20" x="40"><tspan id="SvgjsTspan1017" style="">进线路径</tspan></tspan></text></g></g><g id="SvgjsG1018" transform="translate(159.87084872655404,133)"><path id="SvgjsPath1019" d="M 25 25L 0 0L 196 0L 221 25L 196 50L 0 50L 25 25Z" stroke="none" fill-opacity="1" fill="#0fcab5"></path><g id="SvgjsG1020"><text id="SvgjsText1021" font-family="&quot;Microsoft YaHei&quot;, 微软雅黑, Arial" text-anchor="middle" font-size="16px" width="171px" fill="#ffffff" font-weight="700" align="middle" lineHeight="125%" anchor="middle" family="&quot;Microsoft YaHei&quot;, 微软雅黑, Arial" size="16px" weight="700" font-style="" opacity="1" y="11" transform="rotate(0)"><tspan id="SvgjsTspan1022" dy="20" x="110.5"><tspan id="SvgjsTspan1023" style="">入口</tspan></tspan></text></g></g><g id="SvgjsG1024" transform="translate(367.5,133)"><path id="SvgjsPath1025" d="M 25 25L 0 0L 196 0L 221 25L 196 50L 0 50L 25 25Z" stroke="none" fill-opacity="1" fill="#fdd130"></path><g id="SvgjsG1026"><text id="SvgjsText1027" font-family="&quot;Microsoft YaHei&quot;, 微软雅黑, Arial" text-anchor="middle" font-size="16px" width="171px" fill="#ffffff" font-weight="700" align="middle" lineHeight="125%" anchor="middle" family="&quot;Microsoft YaHei&quot;, 微软雅黑, Arial" size="16px" weight="700" font-style="" opacity="1" y="11" transform="rotate(0)"><tspan id="SvgjsTspan1028" dy="20" x="110.5"><tspan id="SvgjsTspan1029" style="">自助</tspan></tspan></text></g></g><g id="SvgjsG1030" transform="translate(579.5,133)"><path id="SvgjsPath1031" d="M 25 25L 0 0L 196 0L 221 25L 196 50L 0 50L 25 25Z" stroke="none" fill-opacity="1" fill="#fd8380"></path><g id="SvgjsG1032"><text id="SvgjsText1033" font-family="&quot;Microsoft YaHei&quot;, 微软雅黑, Arial" text-anchor="middle" font-size="16px" width="171px" fill="#ffffff" font-weight="700" align="middle" lineHeight="125%" anchor="middle" family="&quot;Microsoft YaHei&quot;, 微软雅黑, Arial" size="16px" weight="700" font-style="" opacity="1" y="11" transform="rotate(0)"><tspan id="SvgjsTspan1034" dy="20" x="110.5"><tspan id="SvgjsTspan1035" style="">转人工</tspan></tspan></text></g></g><g id="SvgjsG1036" transform="translate(783.5,133)"><path id="SvgjsPath1037" d="M 25 25L 0 0L 196 0L 221 25L 196 50L 0 50L 25 25Z" stroke="none" fill-opacity="1" fill="#ed77b6"></path><g id="SvgjsG1038"><text id="SvgjsText1039" font-family="&quot;Microsoft YaHei&quot;, 微软雅黑, Arial" text-anchor="middle" font-size="16px" width="171px" fill="#ffffff" font-weight="700" align="middle" lineHeight="125%" anchor="middle" family="&quot;Microsoft YaHei&quot;, 微软雅黑, Arial" size="16px" weight="700" font-style="" opacity="1" y="11" transform="rotate(0)"><tspan id="SvgjsTspan1040" dy="20" x="110.5"><tspan id="SvgjsTspan1041" style="">选择队列</tspan></tspan></text></g></g><g id="SvgjsG1042" transform="translate(990.5,133)"><path id="SvgjsPath1043" d="M 25 25L 0 0L 196 0L 221 25L 196 50L 0 50L 25 25Z" stroke="none" fill-opacity="1" fill="#bfbfbf"></path><g id="SvgjsG1044"><text id="SvgjsText1045" font-family="&quot;Microsoft YaHei&quot;, 微软雅黑, Arial" text-anchor="middle" font-size="16px" width="171px" fill="#ffffff" font-weight="700" align="middle" lineHeight="125%" anchor="middle" family="&quot;Microsoft YaHei&quot;, 微软雅黑, Arial" size="16px" weight="700" font-style="" opacity="1" y="11" transform="rotate(0)"><tspan id="SvgjsTspan1046" dy="20" x="110.5"><tspan id="SvgjsTspan1047" style="">人工接起</tspan></tspan></text></g></g><g id="SvgjsG1048" transform="translate(160.5,415.5)"><path id="SvgjsPath1049" d="M 0 4Q 0 0 4 0L 173 0Q 177 0 177 4L 177 253Q 177 257 173 257L 4 257Q 0 257 0 253Z" stroke="rgba(15,202,181,1)" stroke-width="2" fill-opacity="1" fill="#ffffff"></path><g id="SvgjsG1050"><text id="SvgjsText1051" font-family="&quot;Microsoft YaHei&quot;, 微软雅黑, Arial" text-anchor="middle" font-size="13px" width="157px" fill="#323232" font-weight="400" align="middle" lineHeight="125%" anchor="middle" family="&quot;Microsoft YaHei&quot;, 微软雅黑, Arial" size="13px" weight="400" font-style="" opacity="1" y="109.875" transform="rotate(0)"><tspan id="SvgjsTspan1052" dy="16.25" x="88.5"><tspan id="SvgjsTspan1053" style="">客服热线-服务渠道入口管</tspan></tspan><tspan id="SvgjsTspan1054" dy="16.25" x="88.5"><tspan id="SvgjsTspan1055" style="">理策略</tspan></tspan></text></g></g><g id="SvgjsG1056" transform="translate(389.5,415.5)"><path id="SvgjsPath1057" d="M 0 4Q 0 0 4 0L 173 0Q 177 0 177 4L 177 253Q 177 257 173 257L 4 257Q 0 257 0 253Z" stroke="rgba(253,209,48,1)" stroke-width="2" fill-opacity="1" fill="#ffffff"></path><g id="SvgjsG1058"><text id="SvgjsText1059" font-family="&quot;Microsoft YaHei&quot;, 微软雅黑, Arial" text-anchor="middle" font-size="13px" width="157px" fill="#323232" font-weight="400" align="middle" lineHeight="125%" anchor="middle" family="&quot;Microsoft YaHei&quot;, 微软雅黑, Arial" size="13px" weight="400" font-style="" opacity="1" y="61.875" transform="rotate(0)"><tspan id="SvgjsTspan1060" dy="16.25" x="88.5"><tspan id="SvgjsTspan1061" style="">客服热线IVR-自助服务个性</tspan></tspan><tspan id="SvgjsTspan1062" dy="16.25" x="88.5"><tspan id="SvgjsTspan1063" style="">化展示策略</tspan></tspan><tspan id="SvgjsTspan1064" dy="16.25" x="88.5"><tspan id="SvgjsTspan1065" style="">客服热线-自助服务准入策</tspan></tspan><tspan id="SvgjsTspan1066" dy="16.25" x="88.5"><tspan id="SvgjsTspan1067" style="">略</tspan></tspan><tspan id="SvgjsTspan1068" dy="16.25" x="88.5"><tspan id="SvgjsTspan1069" style="">客服热线IVR-自助服务解决</tspan></tspan><tspan id="SvgjsTspan1070" dy="16.25" x="88.5"><tspan id="SvgjsTspan1071" style="">方案应用策略</tspan></tspan><tspan id="SvgjsTspan1072" dy="16.25" x="88.5"><tspan id="SvgjsTspan1073" style="">客服热线-自助转人工服务</tspan></tspan><tspan id="SvgjsTspan1074" dy="16.25" x="88.5"><tspan id="SvgjsTspan1075" style="">策略</tspan></tspan></text></g></g><g id="SvgjsG1076" transform="translate(602.2963558413719,415.5)"><path id="SvgjsPath1077" d="M 0 4Q 0 0 4 0L 173 0Q 177 0 177 4L 177 253Q 177 257 173 257L 4 257Q 0 257 0 253Z" stroke="rgba(253,131,128,1)" stroke-width="2" fill-opacity="1" fill="#ffffff"></path><g id="SvgjsG1078"><text id="SvgjsText1079" font-family="&quot;Microsoft YaHei&quot;, 微软雅黑, Arial" text-anchor="middle" font-size="13px" width="157px" fill="#323232" font-weight="400" align="middle" lineHeight="125%" anchor="middle" family="&quot;Microsoft YaHei&quot;, 微软雅黑, Arial" size="13px" weight="400" font-style="" opacity="1" y="93.875" transform="rotate(0)"><tspan id="SvgjsTspan1080" dy="16.25" x="88.5"><tspan id="SvgjsTspan1081" style="">客服热线-服务渠道分流策</tspan></tspan><tspan id="SvgjsTspan1082" dy="16.25" x="88.5"><tspan id="SvgjsTspan1083" style="">略</tspan></tspan><tspan id="SvgjsTspan1084" dy="16.25" x="88.5"><tspan id="SvgjsTspan1085" style="">客服热线-自助服务补救策</tspan></tspan><tspan id="SvgjsTspan1086" dy="16.25" x="88.5"><tspan id="SvgjsTspan1087" style="">略</tspan></tspan></text></g></g><g id="SvgjsG1088" transform="translate(805.5,415.5)"><path id="SvgjsPath1089" d="M 0 4Q 0 0 4 0L 173 0Q 177 0 177 4L 177 253Q 177 257 173 257L 4 257Q 0 257 0 253Z" stroke="rgba(237,119,182,1)" stroke-width="2" fill-opacity="1" fill="#ffffff"></path><g id="SvgjsG1090"><text id="SvgjsText1091" font-family="&quot;Microsoft YaHei&quot;, 微软雅黑, Arial" text-anchor="middle" font-size="13px" width="157px" fill="#323232" font-weight="400" align="middle" lineHeight="125%" anchor="middle" family="&quot;Microsoft YaHei&quot;, 微软雅黑, Arial" size="13px" weight="400" font-style="" opacity="1" y="109.875" transform="rotate(0)"><tspan id="SvgjsTspan1092" dy="16.25" x="88.5"><tspan id="SvgjsTspan1093" style="">客服热线-人工服务准入策</tspan></tspan><tspan id="SvgjsTspan1094" dy="16.25" x="88.5"><tspan id="SvgjsTspan1095" style="">略</tspan></tspan></text></g></g><g id="SvgjsG1096" transform="translate(1012.5000000000001,415.5)"><path id="SvgjsPath1097" d="M 0 4Q 0 0 4 0L 173 0Q 177 0 177 4L 177 253Q 177 257 173 257L 4 257Q 0 257 0 253Z" stroke="rgba(92,92,92,1)" stroke-width="2" fill-opacity="1" fill="#ffffff"></path><g id="SvgjsG1098"><text id="SvgjsText1099" font-family="&quot;Microsoft YaHei&quot;, 微软雅黑, Arial" text-anchor="middle" font-size="13px" width="157px" fill="#323232" font-weight="400" align="middle" lineHeight="125%" anchor="middle" family="&quot;Microsoft YaHei&quot;, 微软雅黑, Arial" size="13px" weight="400" font-style="" opacity="1" y="101.875" transform="rotate(0)"><tspan id="SvgjsTspan1100" dy="16.25" x="88.5"><tspan id="SvgjsTspan1101" style="">客服热线-人工服务补救策</tspan></tspan><tspan id="SvgjsTspan1102" dy="16.25" x="88.5"><tspan id="SvgjsTspan1103" style="">略</tspan></tspan><tspan id="SvgjsTspan1104" dy="16.25" x="88.5"><tspan id="SvgjsTspan1105" style="">客服热线-人效管理策略</tspan></tspan></text></g></g><g id="SvgjsG1106" transform="translate(25,466.5)"><path id="SvgjsPath1107" d="M 0 0L 100 0L 100 43L 0 43Z" stroke="none" fill="none"></path><g id="SvgjsG1108"><text id="SvgjsText1109" font-family="&quot;Microsoft YaHei&quot;, 微软雅黑, Arial" text-anchor="middle" font-size="13px" width="100px" fill="#323232" font-weight="400" align="middle" lineHeight="125%" anchor="middle" family="&quot;Microsoft YaHei&quot;, 微软雅黑, Arial" size="13px" weight="400" font-style="" opacity="1" y="10.875" transform="rotate(0)"><tspan id="SvgjsTspan1110" dy="16.25" x="50"><tspan id="SvgjsTspan1111" style="">经营策略</tspan></tspan></text></g></g><g id="SvgjsG1112" transform="translate(476,25)"><path id="SvgjsPath1113" d="M 0 0L 100 0L 100 43L 0 43Z" stroke="none" fill="none"></path><g id="SvgjsG1114"><text id="SvgjsText1115" font-family="&quot;Microsoft YaHei&quot;, 微软雅黑, Arial" text-anchor="middle" font-size="13px" width="100px" fill="#323232" font-weight="400" align="middle" lineHeight="125%" anchor="middle" family="&quot;Microsoft YaHei&quot;, 微软雅黑, Arial" size="13px" weight="400" font-style="" opacity="1" y="10.875" transform="rotate(0)"><tspan id="SvgjsTspan1116" dy="16.25" x="50"><tspan id="SvgjsTspan1117" style=""> </tspan></tspan></text></g></g><g id="SvgjsG1118" transform="translate(299.58291251653696,48.5)"><path id="SvgjsPath1119" d="M 0 0L 771.4170874834629 0L 771.4170874834629 43L 0 43Z" stroke="none" fill="none"></path><g id="SvgjsG1120"><text id="SvgjsText1121" font-family="&quot;Microsoft YaHei&quot;, 微软雅黑, Arial" text-anchor="middle" font-size="13px" width="772px" fill="#323232" font-weight="400" align="middle" lineHeight="125%" anchor="middle" family="&quot;Microsoft YaHei&quot;, 微软雅黑, Arial" size="13px" weight="400" font-style="" opacity="1" y="10.875" transform="rotate(0)"><tspan id="SvgjsTspan1122" dy="16.25" x="386"><tspan id="SvgjsTspan1123" style="">核心为提升接起率，方式通过调整策略，降低拨打、转人工率、选择队列率，进而减少选择队列的量。</tspan></tspan></text></g></g><g id="SvgjsG1124" transform="translate(194.81779206859594,203)"><path id="SvgjsPath1125" d="M 19.333333333333332 0L 110.66666666666667 0C 136.44444444444446 0 136.44444444444446 58 110.66666666666667 58L 19.333333333333332 58C -6.444444444444444 58 -6.444444444444444 0 19.333333333333332 0Z" stroke="rgba(76,203,205,1)" stroke-width="1.5" fill-opacity="1" fill="#ffffff"></path><g id="SvgjsG1126"><text id="SvgjsText1127" font-family="&quot;Microsoft YaHei&quot;, 微软雅黑, Arial" text-anchor="middle" font-size="13px" width="110px" fill="#323232" font-weight="400" align="middle" lineHeight="125%" anchor="middle" family="&quot;Microsoft YaHei&quot;, 微软雅黑, Arial" size="13px" weight="400" font-style="" opacity="1" y="18.375" transform="rotate(0)"><tspan id="SvgjsTspan1128" dy="16.25" x="65"><tspan id="SvgjsTspan1129" style="">曝光量（暂缺）</tspan></tspan></text></g></g><g id="SvgjsG1130" transform="translate(413,203)"><path id="SvgjsPath1131" d="M 19.333333333333332 0L 110.66666666666667 0C 136.44444444444446 0 136.44444444444446 58 110.66666666666667 58L 19.333333333333332 58C -6.444444444444444 58 -6.444444444444444 0 19.333333333333332 0Z" stroke="rgba(233,214,111,1)" stroke-width="1.5" fill-opacity="1" fill="#ffffff"></path><g id="SvgjsG1132"><text id="SvgjsText1133" font-family="&quot;Microsoft YaHei&quot;, 微软雅黑, Arial" text-anchor="middle" font-size="13px" width="110px" fill="#323232" font-weight="400" align="middle" lineHeight="125%" anchor="middle" family="&quot;Microsoft YaHei&quot;, 微软雅黑, Arial" size="13px" weight="400" font-style="" opacity="1" y="10.375" transform="rotate(0)"><tspan id="SvgjsTspan1134" dy="16.25" x="65"><tspan id="SvgjsTspan1135" style="">呼入量</tspan></tspan><tspan id="SvgjsTspan1136" dy="16.25" x="65"><tspan id="SvgjsTspan1137" style="">21万</tspan></tspan></text></g></g><g id="SvgjsG1138" transform="translate(625,203)"><path id="SvgjsPath1139" d="M 19.333333333333332 0L 110.66666666666667 0C 136.44444444444446 0 136.44444444444446 58 110.66666666666667 58L 19.333333333333332 58C -6.444444444444444 58 -6.444444444444444 0 19.333333333333332 0Z" stroke="rgba(241,149,148,1)" stroke-width="1.5" fill-opacity="1" fill="#ffffff"></path><g id="SvgjsG1140"><text id="SvgjsText1141" font-family="&quot;Microsoft YaHei&quot;, 微软雅黑, Arial" text-anchor="middle" font-size="13px" width="110px" fill="#323232" font-weight="400" align="middle" lineHeight="125%" anchor="middle" family="&quot;Microsoft YaHei&quot;, 微软雅黑, Arial" size="13px" weight="400" font-style="" opacity="1" y="10.375" transform="rotate(0)"><tspan id="SvgjsTspan1142" dy="16.25" x="65"><tspan id="SvgjsTspan1143" style="">转人工量</tspan></tspan><tspan id="SvgjsTspan1144" dy="16.25" x="65"><tspan id="SvgjsTspan1145" style="">14万</tspan></tspan></text></g></g><g id="SvgjsG1146" transform="translate(829,203)"><path id="SvgjsPath1147" d="M 19.333333333333332 0L 110.66666666666667 0C 136.44444444444446 0 136.44444444444446 58 110.66666666666667 58L 19.333333333333332 58C -6.444444444444444 58 -6.444444444444444 0 19.333333333333332 0Z" stroke="rgba(237,119,182,1)" stroke-width="1.5" fill-opacity="1" fill="#ffffff"></path><g id="SvgjsG1148"><text id="SvgjsText1149" font-family="&quot;Microsoft YaHei&quot;, 微软雅黑, Arial" text-anchor="middle" font-size="13px" width="110px" fill="#323232" font-weight="400" align="middle" lineHeight="125%" anchor="middle" family="&quot;Microsoft YaHei&quot;, 微软雅黑, Arial" size="13px" weight="400" font-style="" opacity="1" y="10.375" transform="rotate(0)"><tspan id="SvgjsTspan1150" dy="16.25" x="65"><tspan id="SvgjsTspan1151" style="">选择队列量</tspan></tspan><tspan id="SvgjsTspan1152" dy="16.25" x="65"><tspan id="SvgjsTspan1153" style="">9万</tspan></tspan></text></g></g><g id="SvgjsG1154" transform="translate(1036,203)"><path id="SvgjsPath1155" d="M 19.333333333333332 0L 110.66666666666667 0C 136.44444444444446 0 136.44444444444446 58 110.66666666666667 58L 19.333333333333332 58C -6.444444444444444 58 -6.444444444444444 0 19.333333333333332 0Z" stroke="rgba(127,139,152,1)" stroke-width="1.5" fill-opacity="1" fill="#ffffff"></path><g id="SvgjsG1156"><text id="SvgjsText1157" font-family="&quot;Microsoft YaHei&quot;, 微软雅黑, Arial" text-anchor="middle" font-size="13px" width="110px" fill="#323232" font-weight="400" align="middle" lineHeight="125%" anchor="middle" family="&quot;Microsoft YaHei&quot;, 微软雅黑, Arial" size="13px" weight="400" font-style="" opacity="1" y="10.375" transform="rotate(0)"><tspan id="SvgjsTspan1158" dy="16.25" x="65"><tspan id="SvgjsTspan1159" style="">人工接起量</tspan></tspan><tspan id="SvgjsTspan1160" dy="16.25" x="65"><tspan id="SvgjsTspan1161" style="">7万</tspan></tspan></text></g></g><g id="SvgjsG1162" transform="matrix(6.123233995736766e-17,1,-1,6.123233995736766e-17,444.4808654785156,283)"><path id="SvgjsPath1163" d="M 0 162Q 4.2 162 4.2 153L 4.2 90Q 4.2 81 22 81Q 4.2 81 4.2 72L 4.2 9Q 4.2 0 0 0" stroke="rgba(33,41,48,1)" stroke-width="1.5" fill="none"></path><path id="SvgjsPath1164" d="M 0 0L 42 0L 42 162L 0 162Z" stroke="none" fill="none"></path><g id="SvgjsG1165"><text id="SvgjsText1166" font-family="&quot;Microsoft YaHei&quot;, 微软雅黑, Arial" text-anchor="start" font-size="13px" width="15px" fill="#323232" font-weight="400" align="middle" lineHeight="125%" anchor="start" family="&quot;Microsoft YaHei&quot;, 微软雅黑, Arial" size="13px" weight="400" font-style="" opacity="1" y="70.375" transform="rotate(0)"></text></g></g><g id="SvgjsG1167" transform="translate(299.58291251653696,308)"><path id="SvgjsPath1168" d="M 0 0L 130 0L 130 40L 0 40Z" stroke="none" fill="none"></path><g id="SvgjsG1169"><text id="SvgjsText1170" font-family="&quot;Microsoft YaHei&quot;, 微软雅黑, Arial" text-anchor="middle" font-size="13px" width="130px" fill="#323232" font-weight="400" align="middle" lineHeight="125%" anchor="middle" family="&quot;Microsoft YaHei&quot;, 微软雅黑, Arial" size="13px" weight="400" font-style="" opacity="1" y="9.375" transform="rotate(0)"><tspan id="SvgjsTspan1171" dy="16.25" x="65"><tspan id="SvgjsTspan1172" style="">拨打率（暂缺）</tspan></tspan></text></g></g><g id="SvgjsG1173" transform="matrix(6.123233995736766e-17,1,-1,6.123233995736766e-17,659.95263671875,283)"><path id="SvgjsPath1174" d="M 0 162Q 4.2 162 4.2 153L 4.2 90Q 4.2 81 22 81Q 4.2 81 4.2 72L 4.2 9Q 4.2 0 0 0" stroke="rgba(33,41,48,1)" stroke-width="1.5" fill="none"></path><path id="SvgjsPath1175" d="M 0 0L 42 0L 42 162L 0 162Z" stroke="none" fill="none"></path><g id="SvgjsG1176"><text id="SvgjsText1177" font-family="&quot;Microsoft YaHei&quot;, 微软雅黑, Arial" text-anchor="start" font-size="13px" width="15px" fill="#323232" font-weight="400" align="middle" lineHeight="125%" anchor="start" family="&quot;Microsoft YaHei&quot;, 微软雅黑, Arial" size="13px" weight="400" font-style="" opacity="1" y="70.375" transform="rotate(0)"></text></g></g><g id="SvgjsG1178" transform="translate(511.4574696300688,308)"><path id="SvgjsPath1179" d="M 0 0L 130 0L 130 40L 0 40Z" stroke="none" fill="none"></path><g id="SvgjsG1180"><text id="SvgjsText1181" font-family="&quot;Microsoft YaHei&quot;, 微软雅黑, Arial" text-anchor="middle" font-size="13px" width="130px" fill="#323232" font-weight="400" align="middle" lineHeight="125%" anchor="middle" family="&quot;Microsoft YaHei&quot;, 微软雅黑, Arial" size="13px" weight="400" font-style="" opacity="1" y="1.375" transform="rotate(0)"><tspan id="SvgjsTspan1182" dy="16.25" x="65"><tspan id="SvgjsTspan1183" style="">转人工率</tspan></tspan><tspan id="SvgjsTspan1184" dy="16.25" x="65"><tspan id="SvgjsTspan1185" style="">66%</tspan></tspan></text></g></g><g id="SvgjsG1186" transform="matrix(6.123233995736766e-17,1,-1,6.123233995736766e-17,880.590576171875,283)"><path id="SvgjsPath1187" d="M 0 162Q 4.2 162 4.2 153L 4.2 90Q 4.2 81 22 81Q 4.2 81 4.2 72L 4.2 9Q 4.2 0 0 0" stroke="rgba(33,41,48,1)" stroke-width="1.5" fill="none"></path><path id="SvgjsPath1188" d="M 0 0L 42 0L 42 162L 0 162Z" stroke="none" fill="none"></path><g id="SvgjsG1189"><text id="SvgjsText1190" font-family="&quot;Microsoft YaHei&quot;, 微软雅黑, Arial" text-anchor="start" font-size="13px" width="15px" fill="#323232" font-weight="400" align="middle" lineHeight="125%" anchor="start" family="&quot;Microsoft YaHei&quot;, 微软雅黑, Arial" size="13px" weight="400" font-style="" opacity="1" y="70.375" transform="rotate(0)"></text></g></g><g id="SvgjsG1191" transform="translate(728.3223804413497,308)"><path id="SvgjsPath1192" d="M 0 0L 130 0L 130 40L 0 40Z" stroke="none" fill="none"></path><g id="SvgjsG1193"><text id="SvgjsText1194" font-family="&quot;Microsoft YaHei&quot;, 微软雅黑, Arial" text-anchor="middle" font-size="13px" width="130px" fill="#323232" font-weight="400" align="middle" lineHeight="125%" anchor="middle" family="&quot;Microsoft YaHei&quot;, 微软雅黑, Arial" size="13px" weight="400" font-style="" opacity="1" y="1.375" transform="rotate(0)"><tspan id="SvgjsTspan1195" dy="16.25" x="65"><tspan id="SvgjsTspan1196" style="">选择队列率</tspan></tspan><tspan id="SvgjsTspan1197" dy="16.25" x="65"><tspan id="SvgjsTspan1198" style="">62%</tspan></tspan></text></g></g><g id="SvgjsG1199" transform="matrix(6.123233995736766e-17,1,-1,6.123233995736766e-17,1084.6527099609375,283)"><path id="SvgjsPath1200" d="M 0 162Q 4.2 162 4.2 153L 4.2 90Q 4.2 81 22 81Q 4.2 81 4.2 72L 4.2 9Q 4.2 0 0 0" stroke="rgba(235,17,9,1)" stroke-width="1.5" fill="none"></path><path id="SvgjsPath1201" d="M 0 0L 42 0L 42 162L 0 162Z" stroke="none" fill="none"></path><g id="SvgjsG1202"><text id="SvgjsText1203" font-family="&quot;Microsoft YaHei&quot;, 微软雅黑, Arial" text-anchor="start" font-size="13px" width="15px" fill="#323232" font-weight="400" align="middle" lineHeight="125%" anchor="start" family="&quot;Microsoft YaHei&quot;, 微软雅黑, Arial" size="13px" weight="400" font-style="" opacity="1" y="70.375" transform="rotate(0)"></text></g></g><g id="SvgjsG1204" transform="translate(935.9433878190202,308)"><path id="SvgjsPath1205" d="M 0 0L 130 0L 130 40L 0 40Z" stroke="none" fill="none"></path><g id="SvgjsG1206"><text id="SvgjsText1207" font-family="&quot;Microsoft YaHei&quot;, 微软雅黑, Arial" text-anchor="middle" font-size="13px" width="130px" fill="#eb1109" font-weight="400" align="middle" lineHeight="125%" anchor="middle" family="&quot;Microsoft YaHei&quot;, 微软雅黑, Arial" size="13px" weight="400" font-style="" opacity="1" y="1.375" transform="rotate(0)"><tspan id="SvgjsTspan1208" dy="16.25" x="65"><tspan id="SvgjsTspan1209" style="">接起率</tspan></tspan><tspan id="SvgjsTspan1210" dy="16.25" x="65"><tspan id="SvgjsTspan1211" style="">80%</tspan></tspan></text></g></g><g id="SvgjsG1212" transform="translate(45,190)"><path id="SvgjsPath1213" d="M 0 0L 1205 0L 1205 162L 0 162Z" stroke="rgba(33,41,48,1)" stroke-width="2" fill="none"></path><path id="SvgjsPath1214" d="M 0 0L 80 0L 80 162L 0 162Z" stroke="rgba(33,41,48,1)" stroke-width="2" fill-opacity="1" fill="#ffffff"></path><g id="SvgjsG1215"><text id="SvgjsText1216" font-family="&quot;Microsoft YaHei&quot;, 微软雅黑, Arial" text-anchor="middle" font-size="16px" width="80px" fill="#323232" font-weight="400" align="middle" lineHeight="125%" anchor="middle" family="&quot;Microsoft YaHei&quot;, 微软雅黑, Arial" size="16px" weight="400" font-style="" opacity="1" y="67" transform="rotate(0)"><tspan id="SvgjsTspan1217" dy="20" x="40"><tspan id="SvgjsTspan1218" style="">衡量指标</tspan></tspan></text></g></g><g id="SvgjsG1219" transform="translate(45,354)"><path id="SvgjsPath1220" d="M 0 0L 1205 0L 1205 355L 0 355Z" stroke="rgba(33,41,48,1)" stroke-width="2" fill="none"></path><path id="SvgjsPath1221" d="M 0 0L 80 0L 80 355L 0 355Z" stroke="rgba(33,41,48,1)" stroke-width="2" fill-opacity="1" fill="#ffffff"></path><g id="SvgjsG1222"><text id="SvgjsText1223" font-family="&quot;Microsoft YaHei&quot;, 微软雅黑, Arial" text-anchor="middle" font-size="16px" width="80px" fill="#323232" font-weight="400" align="middle" lineHeight="125%" anchor="middle" family="&quot;Microsoft YaHei&quot;, 微软雅黑, Arial" size="16px" weight="400" font-style="" opacity="1" y="163.5" transform="rotate(0)"><tspan id="SvgjsTspan1224" dy="20" x="40"><tspan id="SvgjsTspan1225" style="">经营策略</tspan></tspan></text></g></g><g id="SvgjsG1226" transform="translate(160.5,752.5750487329435)"><path id="SvgjsPath1227" d="M 0 4Q 0 0 4 0L 173 0Q 177 0 177 4L 177 253Q 177 257 173 257L 4 257Q 0 257 0 253Z" stroke="rgba(15,202,181,1)" stroke-width="2" fill-opacity="1" fill="#ffffff"></path><g id="SvgjsG1228"><text id="SvgjsText1229" font-family="&quot;Microsoft YaHei&quot;, 微软雅黑, Arial" text-anchor="middle" font-size="13px" width="157px" fill="#323232" font-weight="400" align="middle" lineHeight="125%" anchor="middle" family="&quot;Microsoft YaHei&quot;, 微软雅黑, Arial" size="13px" weight="400" font-style="" opacity="1" y="93.875" transform="rotate(0)"><tspan id="SvgjsTspan1230" dy="16.25" x="88.5"><tspan id="SvgjsTspan1231" style="">1.较少通过在线进入电话的</tspan></tspan><tspan id="SvgjsTspan1232" dy="16.25" x="88.5"><tspan id="SvgjsTspan1233" style="">量，非工作时间不推送客服</tspan></tspan><tspan id="SvgjsTspan1234" dy="16.25" x="88.5"><tspan id="SvgjsTspan1235" style="">电话</tspan></tspan><tspan id="SvgjsTspan1236" dy="16.25" x="88.5"><tspan id="SvgjsTspan1237" style="">预计减少120通</tspan></tspan></text></g></g><g id="SvgjsG1238" transform="translate(25,847)"><path id="SvgjsPath1239" d="M 0 0L 100 0L 100 43L 0 43Z" stroke="none" fill="none"></path><g id="SvgjsG1240"><text id="SvgjsText1241" font-family="&quot;Microsoft YaHei&quot;, 微软雅黑, Arial" text-anchor="middle" font-size="13px" width="100px" fill="#323232" font-weight="400" align="middle" lineHeight="125%" anchor="middle" family="&quot;Microsoft YaHei&quot;, 微软雅黑, Arial" size="13px" weight="400" font-style="" opacity="1" y="10.875" transform="rotate(0)"><tspan id="SvgjsTspan1242" dy="16.25" x="50"><tspan id="SvgjsTspan1243" style="">优化措施</tspan></tspan></text></g></g><g id="SvgjsG1244" transform="translate(389.5,752.5750487329435)"><path id="SvgjsPath1245" d="M 0 4Q 0 0 4 0L 173 0Q 177 0 177 4L 177 253Q 177 257 173 257L 4 257Q 0 257 0 253Z" stroke="rgba(233,214,111,1)" stroke-width="2" fill-opacity="1" fill="#ffffff"></path><g id="SvgjsG1246"><text id="SvgjsText1247" font-family="&quot;Microsoft YaHei&quot;, 微软雅黑, Arial" text-anchor="middle" font-size="13px" width="157px" fill="#323232" font-weight="400" align="middle" lineHeight="125%" anchor="middle" family="&quot;Microsoft YaHei&quot;, 微软雅黑, Arial" size="13px" weight="400" font-style="" opacity="1" y="109.875" transform="rotate(0)"><tspan id="SvgjsTspan1248" dy="16.25" x="88.5"><tspan id="SvgjsTspan1249" style="">1.根据会员订单是否可退状</tspan></tspan><tspan id="SvgjsTspan1250" dy="16.25" x="88.5"><tspan id="SvgjsTspan1251" style="">态设计ivr</tspan></tspan></text></g></g><g id="SvgjsG1252" transform="translate(606.5,752.5750487329435)"><path id="SvgjsPath1253" d="M 0 4Q 0 0 4 0L 173 0Q 177 0 177 4L 177 253Q 177 257 173 257L 4 257Q 0 257 0 253Z" stroke="rgba(253,131,128,1)" stroke-width="2" fill-opacity="1" fill="#ffffff"></path><g id="SvgjsG1254"><text id="SvgjsText1255" font-family="&quot;Microsoft YaHei&quot;, 微软雅黑, Arial" text-anchor="middle" font-size="13px" width="157px" fill="#323232" font-weight="400" align="middle" lineHeight="125%" anchor="middle" family="&quot;Microsoft YaHei&quot;, 微软雅黑, Arial" size="13px" weight="400" font-style="" opacity="1" y="85.875" transform="rotate(0)"><tspan id="SvgjsTspan1256" dy="16.25" x="88.5"><tspan id="SvgjsTspan1257" style=""> </tspan></tspan><tspan id="SvgjsTspan1258" dy="16.25" x="88.5"><tspan id="SvgjsTspan1259" style="">1.未申完客群要求使用注册</tspan></tspan><tspan id="SvgjsTspan1260" dy="16.25" x="88.5"><tspan id="SvgjsTspan1261" style="">手机号拨打，其他节点关闭</tspan></tspan><tspan id="SvgjsTspan1262" dy="16.25" x="88.5"><tspan id="SvgjsTspan1263" style="">人工入口，发送在线短信；</tspan></tspan><tspan id="SvgjsTspan1264" dy="16.25" x="88.5"><tspan id="SvgjsTspan1265" style="">预计减少300通</tspan></tspan></text></g></g><g id="SvgjsG1266" transform="translate(805.5,752.5750487329435)"><path id="SvgjsPath1267" d="M 0 4Q 0 0 4 0L 173 0Q 177 0 177 4L 177 253Q 177 257 173 257L 4 257Q 0 257 0 253Z" stroke="rgba(237,119,182,1)" stroke-width="2" fill-opacity="1" fill="#ffffff"></path><g id="SvgjsG1268"><text id="SvgjsText1269" font-family="&quot;Microsoft YaHei&quot;, 微软雅黑, Arial" text-anchor="middle" font-size="13px" width="157px" fill="#323232" font-weight="400" align="middle" lineHeight="125%" anchor="middle" family="&quot;Microsoft YaHei&quot;, 微软雅黑, Arial" size="13px" weight="400" font-style="" opacity="1" y="85.875" transform="rotate(0)"><tspan id="SvgjsTspan1270" dy="16.25" x="88.5"><tspan id="SvgjsTspan1271" style="fill: rgb(235, 17, 9);">1.无身份客群触发人工后有</tspan></tspan><tspan id="SvgjsTspan1272" dy="16.25" x="88.5"><tspan id="SvgjsTspan1273" style="fill: rgb(235, 17, 9);">进电话队列改为引导至在</tspan></tspan><tspan id="SvgjsTspan1274" dy="16.25" x="88.5"><tspan id="SvgjsTspan1275" style="fill: rgb(235, 17, 9);">线，已上线，每日减少进入</tspan></tspan><tspan id="SvgjsTspan1276" dy="16.25" x="88.5"><tspan id="SvgjsTspan1277" style="fill: rgb(235, 17, 9);">队列量400通</tspan></tspan><tspan id="SvgjsTspan1278" dy="16.25" x="88.5"><tspan id="SvgjsTspan1279" style=""> </tspan></tspan></text></g></g><g id="SvgjsG1280" transform="translate(1018.5000000000001,752.5750487329435)"><path id="SvgjsPath1281" d="M 0 4Q 0 0 4 0L 173 0Q 177 0 177 4L 177 253Q 177 257 173 257L 4 257Q 0 257 0 253Z" stroke="rgba(92,92,92,1)" stroke-width="2" fill-opacity="1" fill="#ffffff"></path><g id="SvgjsG1282"><text id="SvgjsText1283" font-family="&quot;Microsoft YaHei&quot;, 微软雅黑, Arial" text-anchor="middle" font-size="13px" width="157px" fill="#323232" font-weight="400" align="middle" lineHeight="125%" anchor="middle" family="&quot;Microsoft YaHei&quot;, 微软雅黑, Arial" size="13px" weight="400" font-style="" opacity="1" y="117.875" transform="rotate(0)"><tspan id="SvgjsTspan1284" dy="16.25" x="88.5"><tspan id="SvgjsTspan1285" style=""> </tspan></tspan></text></g></g><g id="SvgjsG1286"></g></svg>