<svg id="SvgjsSvg1375" xmlns="http://www.w3.org/2000/svg" version="1.1" xmlns:xlink="http://www.w3.org/1999/xlink" xmlns:svgjs="http://svgjs.com/svgjs" width="1919" height="1084"><defs id="SvgjsDefs1376"><marker id="SvgjsMarker1391" markerWidth="14" markerHeight="10" refX="10" refY="5" viewBox="0 0 14 10" orient="auto" markerUnits="userSpaceOnUse" stroke-dasharray="0,0"><path id="SvgjsPath1392" d="M0 0L14 5L0 10L0 0 " fill="#323232" stroke="#323232" stroke-width="1"></path></marker><marker id="SvgjsMarker1405" markerWidth="14" markerHeight="10" refX="10" refY="5" viewBox="0 0 14 10" orient="auto" markerUnits="userSpaceOnUse" stroke-dasharray="0,0"><path id="SvgjsPath1406" d="M0 0L14 5L0 10L0 0 " fill="#323232" stroke="#323232" stroke-width="1"></path></marker><marker id="SvgjsMarker1415" markerWidth="14" markerHeight="10" refX="10" refY="5" viewBox="0 0 14 10" orient="auto" markerUnits="userSpaceOnUse" stroke-dasharray="0,0"><path id="SvgjsPath1416" d="M0 0L14 5L0 10L0 0 " fill="#323232" stroke="#323232" stroke-width="1"></path></marker><marker id="SvgjsMarker1443" markerWidth="14" markerHeight="10" refX="10" refY="5" viewBox="0 0 14 10" orient="auto" markerUnits="userSpaceOnUse" stroke-dasharray="0,0"><path id="SvgjsPath1444" d="M0 0L14 5L0 10L0 0 " fill="#323232" stroke="#323232" stroke-width="1"></path></marker><marker id="SvgjsMarker1447" markerWidth="14" markerHeight="10" refX="10" refY="5" viewBox="0 0 14 10" orient="auto" markerUnits="userSpaceOnUse" stroke-dasharray="0,0"><path id="SvgjsPath1448" d="M0 0L14 5L0 10L0 0 " fill="#323232" stroke="#323232" stroke-width="1"></path></marker><marker id="SvgjsMarker1467" markerWidth="14" markerHeight="10" refX="10" refY="5" viewBox="0 0 14 10" orient="auto" markerUnits="userSpaceOnUse" stroke-dasharray="0,0"><path id="SvgjsPath1468" d="M0 0L14 5L0 10L0 0 " fill="#323232" stroke="#323232" stroke-width="1"></path></marker><marker id="SvgjsMarker1475" markerWidth="14" markerHeight="10" refX="10" refY="5" viewBox="0 0 14 10" orient="auto" markerUnits="userSpaceOnUse" stroke-dasharray="0,0"><path id="SvgjsPath1476" d="M0 0L14 5L0 10L0 0 " fill="#323232" stroke="#323232" stroke-width="1"></path></marker><marker id="SvgjsMarker1505" markerWidth="14" markerHeight="10" refX="10" refY="5" viewBox="0 0 14 10" orient="auto" markerUnits="userSpaceOnUse" stroke-dasharray="0,0"><path id="SvgjsPath1506" d="M0 0L14 5L0 10L0 0 " fill="#323232" stroke="#323232" stroke-width="1"></path></marker><marker id="SvgjsMarker1509" markerWidth="14" markerHeight="10" refX="10" refY="5" viewBox="0 0 14 10" orient="auto" markerUnits="userSpaceOnUse" stroke-dasharray="0,0"><path id="SvgjsPath1510" d="M0 0L14 5L0 10L0 0 " fill="#323232" stroke="#323232" stroke-width="1"></path></marker><marker id="SvgjsMarker1513" markerWidth="14" markerHeight="10" refX="10" refY="5" viewBox="0 0 14 10" orient="auto" markerUnits="userSpaceOnUse" stroke-dasharray="0,0"><path id="SvgjsPath1514" d="M0 0L14 5L0 10L0 0 " fill="#323232" stroke="#323232" stroke-width="1"></path></marker><marker id="SvgjsMarker1535" markerWidth="14" markerHeight="10" refX="10" refY="5" viewBox="0 0 14 10" orient="auto" markerUnits="userSpaceOnUse" stroke-dasharray="0,0"><path id="SvgjsPath1536" d="M0 0L14 5L0 10L0 0 " fill="#323232" stroke="#323232" stroke-width="1"></path></marker><marker id="SvgjsMarker1539" markerWidth="14" markerHeight="10" refX="10" refY="5" viewBox="0 0 14 10" orient="auto" markerUnits="userSpaceOnUse" stroke-dasharray="0,0"><path id="SvgjsPath1540" d="M0 0L14 5L0 10L0 0 " fill="#323232" stroke="#323232" stroke-width="1"></path></marker><marker id="SvgjsMarker1549" markerWidth="14" markerHeight="10" refX="10" refY="5" viewBox="0 0 14 10" orient="auto" markerUnits="userSpaceOnUse" stroke-dasharray="0,0"><path id="SvgjsPath1550" d="M0 0L14 5L0 10L0 0 " fill="#323232" stroke="#323232" stroke-width="1"></path></marker><marker id="SvgjsMarker1569" markerWidth="14" markerHeight="10" refX="10" refY="5" viewBox="0 0 14 10" orient="auto" markerUnits="userSpaceOnUse" stroke-dasharray="0,0"><path id="SvgjsPath1570" d="M0 0L14 5L0 10L0 0 " fill="#323232" stroke="#323232" stroke-width="1"></path></marker><marker id="SvgjsMarker1573" markerWidth="14" markerHeight="10" refX="10" refY="5" viewBox="0 0 14 10" orient="auto" markerUnits="userSpaceOnUse" stroke-dasharray="0,0"><path id="SvgjsPath1574" d="M0 0L14 5L0 10L0 0 " fill="#323232" stroke="#323232" stroke-width="1"></path></marker><marker id="SvgjsMarker1595" markerWidth="14" markerHeight="10" refX="10" refY="5" viewBox="0 0 14 10" orient="auto" markerUnits="userSpaceOnUse" stroke-dasharray="0,0"><path id="SvgjsPath1596" d="M0 0L14 5L0 10L0 0 " fill="#323232" stroke="#323232" stroke-width="1"></path></marker><marker id="SvgjsMarker1611" markerWidth="14" markerHeight="10" refX="10" refY="5" viewBox="0 0 14 10" orient="auto" markerUnits="userSpaceOnUse" stroke-dasharray="0,0"><path id="SvgjsPath1612" d="M0 0L14 5L0 10L0 0 " fill="#323232" stroke="#323232" stroke-width="1"></path></marker><marker id="SvgjsMarker1634" markerWidth="14" markerHeight="10" refX="10" refY="5" viewBox="0 0 14 10" orient="auto" markerUnits="userSpaceOnUse" stroke-dasharray="0,0"><path id="SvgjsPath1635" d="M0 0L14 5L0 10L0 0 " fill="#323232" stroke="#323232" stroke-width="1"></path></marker><marker id="SvgjsMarker1638" markerWidth="14" markerHeight="10" refX="10" refY="5" viewBox="0 0 14 10" orient="auto" markerUnits="userSpaceOnUse" stroke-dasharray="0,0"><path id="SvgjsPath1639" d="M0 0L14 5L0 10L0 0 " fill="#323232" stroke="#323232" stroke-width="1"></path></marker><marker id="SvgjsMarker1652" markerWidth="14" markerHeight="10" refX="10" refY="5" viewBox="0 0 14 10" orient="auto" markerUnits="userSpaceOnUse" stroke-dasharray="0,0"><path id="SvgjsPath1653" d="M0 0L14 5L0 10L0 0 " fill="#323232" stroke="#323232" stroke-width="1"></path></marker><marker id="SvgjsMarker1662" markerWidth="14" markerHeight="10" refX="10" refY="5" viewBox="0 0 14 10" orient="auto" markerUnits="userSpaceOnUse" stroke-dasharray="0,0"><path id="SvgjsPath1663" d="M0 0L14 5L0 10L0 0 " fill="#323232" stroke="#323232" stroke-width="1"></path></marker><marker id="SvgjsMarker1691" markerWidth="14" markerHeight="10" refX="10" refY="5" viewBox="0 0 14 10" orient="auto" markerUnits="userSpaceOnUse" stroke-dasharray="0,0"><path id="SvgjsPath1692" d="M0 0L14 5L0 10L0 0 " fill="#323232" stroke="#323232" stroke-width="1"></path></marker><marker id="SvgjsMarker1707" markerWidth="14" markerHeight="10" refX="10" refY="5" viewBox="0 0 14 10" orient="auto" markerUnits="userSpaceOnUse" stroke-dasharray="0,0"><path id="SvgjsPath1708" d="M0 0L14 5L0 10L0 0 " fill="#323232" stroke="#323232" stroke-width="1"></path></marker><marker id="SvgjsMarker1734" markerWidth="14" markerHeight="10" refX="10" refY="5" viewBox="0 0 14 10" orient="auto" markerUnits="userSpaceOnUse" stroke-dasharray="0,0"><path id="SvgjsPath1735" d="M0 0L14 5L0 10L0 0 " fill="#323232" stroke="#323232" stroke-width="1"></path></marker><marker id="SvgjsMarker1738" markerWidth="14" markerHeight="10" refX="10" refY="5" viewBox="0 0 14 10" orient="auto" markerUnits="userSpaceOnUse" stroke-dasharray="0,0"><path id="SvgjsPath1739" d="M0 0L14 5L0 10L0 0 " fill="#323232" stroke="#323232" stroke-width="1"></path></marker></defs><g id="SvgjsG1377" transform="translate(340,95)"><path id="SvgjsPath1378" d="M0 0L100 0L100 70L0 70Z " stroke="rgba(50,50,50,1)" stroke-width="2" fill-opacity="1" fill="#ffffff"></path><g id="SvgjsG1379"><text id="SvgjsText1380" font-family="微软雅黑" text-anchor="middle" font-size="13px" width="80px" fill="#323232" font-weight="400" align="middle" lineHeight="125%" font-style="" opacity="1" y="24.375" transform="rotate(0)"><tspan id="SvgjsTspan1381" dy="16" x="50"><tspan id="SvgjsTspan1382" style="text-decoration:;">未注册客户</tspan></tspan></text></g></g><g id="SvgjsG1383" transform="translate(336,381)"><path id="SvgjsPath1384" d="M0 0L100 0L100 70L0 70Z " stroke="rgba(50,50,50,1)" stroke-width="2" fill-opacity="1" fill="#ffffff"></path><g id="SvgjsG1385"><text id="SvgjsText1386" font-family="微软雅黑" text-anchor="middle" font-size="13px" width="80px" fill="#323232" font-weight="400" align="middle" lineHeight="125%" font-style="" opacity="1" y="24.375" transform="rotate(0)"><tspan id="SvgjsTspan1387" dy="16" x="50"><tspan id="SvgjsTspan1388" style="text-decoration:;">注册完成客户</tspan></tspan></text></g></g><g id="SvgjsG1389"><path id="SvgjsPath1390" d="M249 337L292.5 337L292.5 416L332.4 416 " stroke="#323232" stroke-width="2" fill="none" marker-end="url(#SvgjsMarker1391)"></path><rect id="SvgjsRect1393" width="13" height="16" x="286" y="366.7" fill="#ffffff"></rect><text id="SvgjsText1394" font-family="微软雅黑" text-anchor="middle" font-size="13px" width="13px" fill="#323232" font-weight="400" align="top" lineHeight="16px" font-style="" opacity="1" y="364.075" transform="rotate(0)"><tspan id="SvgjsTspan1395" dy="16" x="292.5"><tspan id="SvgjsTspan1396" style="text-decoration:;">是</tspan></tspan></text></g><g id="SvgjsG1397" transform="translate(507,25)"><path id="SvgjsPath1398" d="M0 0L100 0L100 70L0 70Z " stroke="rgba(50,50,50,1)" stroke-width="2" fill-opacity="1" fill="#ffcdd2"></path><g id="SvgjsG1399"><text id="SvgjsText1400" font-family="微软雅黑" text-anchor="middle" font-size="13px" width="80px" fill="#323232" font-weight="400" align="middle" lineHeight="125%" font-style="" opacity="1" y="24.375" transform="rotate(0)"><tspan id="SvgjsTspan1401" dy="16" x="50"><tspan id="SvgjsTspan1402" style="text-decoration:;">无身份客户</tspan></tspan></text></g></g><g id="SvgjsG1403"><path id="SvgjsPath1404" d="M441 130L473.5 130L473.5 60L503.4 60 " stroke="#323232" stroke-width="2" fill="none" marker-end="url(#SvgjsMarker1405)"></path></g><g id="SvgjsG1407" transform="translate(507,132)"><path id="SvgjsPath1408" d="M0 0L100 0L100 70L0 70Z " stroke="rgba(50,50,50,1)" stroke-width="2" fill-opacity="1" fill="#ffcdd2"></path><g id="SvgjsG1409"><text id="SvgjsText1410" font-family="微软雅黑" text-anchor="middle" font-size="13px" width="80px" fill="#323232" font-weight="400" align="middle" lineHeight="125%" font-style="" opacity="1" y="24.375" transform="rotate(0)"><tspan id="SvgjsTspan1411" dy="16" x="50"><tspan id="SvgjsTspan1412" style="text-decoration:;">假注册客户</tspan></tspan></text></g></g><g id="SvgjsG1413"><path id="SvgjsPath1414" d="M441 130L473.5 130L473.5 167L503.4 167 " stroke="#323232" stroke-width="2" fill="none" marker-end="url(#SvgjsMarker1415)"></path></g><g id="SvgjsG1417" transform="translate(486,381)"><path id="SvgjsPath1418" d="M0 35L45 0L90 35L45 70L0 35Z " stroke="rgba(50,50,50,1)" stroke-width="2" fill-opacity="1" fill="#ffffff"></path><g id="SvgjsG1419"><text id="SvgjsText1420" font-family="微软雅黑" text-anchor="middle" font-size="13px" width="70px" fill="#323232" font-weight="400" align="middle" lineHeight="125%" font-style="" opacity="1" y="8.375" transform="rotate(0)"><tspan id="SvgjsTspan1421" dy="16" x="45"><tspan id="SvgjsTspan1422" style="text-decoration:;">是否有成功</tspan></tspan><tspan id="SvgjsTspan1423" dy="16" x="45"><tspan id="SvgjsTspan1424" style="text-decoration:;">在借订单客</tspan></tspan><tspan id="SvgjsTspan1425" dy="16" x="45"><tspan id="SvgjsTspan1426" style="text-decoration:;">户</tspan></tspan></text></g></g><g id="SvgjsG1427" transform="translate(157,302)"><path id="SvgjsPath1428" d="M0 35L45 0L90 35L45 70L0 35Z " stroke="rgba(50,50,50,1)" stroke-width="2" fill-opacity="1" fill="#ffffff"></path><g id="SvgjsG1429"><text id="SvgjsText1430" font-family="微软雅黑" text-anchor="middle" font-size="13px" width="70px" fill="#323232" font-weight="400" align="middle" lineHeight="125%" font-style="" opacity="1" y="16.375" transform="rotate(0)"><tspan id="SvgjsTspan1431" dy="16" x="45"><tspan id="SvgjsTspan1432" style="text-decoration:;">判断是否注</tspan></tspan><tspan id="SvgjsTspan1433" dy="16" x="45"><tspan id="SvgjsTspan1434" style="text-decoration:;">册</tspan></tspan></text></g></g><g id="SvgjsG1435" transform="translate(25,302)"><path id="SvgjsPath1436" d="M0 0L100 0L100 70L0 70Z " stroke="rgba(50,50,50,1)" stroke-width="2" fill-opacity="1" fill="#ffffff"></path><g id="SvgjsG1437"><text id="SvgjsText1438" font-family="微软雅黑" text-anchor="middle" font-size="13px" width="80px" fill="#323232" font-weight="400" align="middle" lineHeight="125%" font-style="" opacity="1" y="24.375" transform="rotate(0)"><tspan id="SvgjsTspan1439" dy="16" x="50"><tspan id="SvgjsTspan1440" style="text-decoration:;">客户</tspan></tspan></text></g></g><g id="SvgjsG1441"><path id="SvgjsPath1442" d="M126 337L141 337L141 337L153.4 337 " stroke="#323232" stroke-width="2" fill="none" marker-end="url(#SvgjsMarker1443)"></path></g><g id="SvgjsG1445"><path id="SvgjsPath1446" d="M437 416L461 416L461 416L482.4 416 " stroke="#323232" stroke-width="2" fill="none" marker-end="url(#SvgjsMarker1447)"></path></g><g id="SvgjsG1449" transform="translate(626,323)"><path id="SvgjsPath1450" d="M0 0L100 0L100 70L0 70Z " stroke="rgba(50,50,50,1)" stroke-width="2" fill-opacity="1" fill="#ffffff"></path><g id="SvgjsG1451"><text id="SvgjsText1452" font-family="微软雅黑" text-anchor="middle" font-size="13px" width="80px" fill="#323232" font-weight="400" align="middle" lineHeight="125%" font-style="" opacity="1" y="16.375" transform="rotate(0)"><tspan id="SvgjsTspan1453" dy="16" x="50"><tspan id="SvgjsTspan1454" style="text-decoration:;">无成功在借订</tspan></tspan><tspan id="SvgjsTspan1455" dy="16" x="50"><tspan id="SvgjsTspan1456" style="text-decoration:;">单</tspan></tspan></text></g></g><g id="SvgjsG1457" transform="translate(626,861)"><path id="SvgjsPath1458" d="M0 0L100 0L100 70L0 70Z " stroke="rgba(50,50,50,1)" stroke-width="2" fill-opacity="1" fill="#ffffff"></path><g id="SvgjsG1459"><text id="SvgjsText1460" font-family="微软雅黑" text-anchor="middle" font-size="13px" width="80px" fill="#323232" font-weight="400" align="middle" lineHeight="125%" font-style="" opacity="1" y="16.375" transform="rotate(0)"><tspan id="SvgjsTspan1461" dy="16" x="50"><tspan id="SvgjsTspan1462" style="text-decoration:;">有成功在借订</tspan></tspan><tspan id="SvgjsTspan1463" dy="16" x="50"><tspan id="SvgjsTspan1464" style="text-decoration:;">单</tspan></tspan></text></g></g><g id="SvgjsG1465"><path id="SvgjsPath1466" d="M577 416L601 416L601 358L622.4 358 " stroke="#323232" stroke-width="2" fill="none" marker-end="url(#SvgjsMarker1467)"></path><rect id="SvgjsRect1469" width="13" height="16" x="594.5" y="380.3" fill="#ffffff"></rect><text id="SvgjsText1470" font-family="微软雅黑" text-anchor="middle" font-size="13px" width="13px" fill="#323232" font-weight="400" align="top" lineHeight="16px" font-style="" opacity="1" y="377.675" transform="rotate(0)"><tspan id="SvgjsTspan1471" dy="16" x="601"><tspan id="SvgjsTspan1472" style="text-decoration:;">否</tspan></tspan></text></g><g id="SvgjsG1473"><path id="SvgjsPath1474" d="M577 416L601 416L601 896L622.4 896 " stroke="#323232" stroke-width="2" fill="none" marker-end="url(#SvgjsMarker1475)"></path><rect id="SvgjsRect1477" width="13" height="16" x="594.5" y="646.7" fill="#ffffff"></rect><text id="SvgjsText1478" font-family="微软雅黑" text-anchor="middle" font-size="13px" width="13px" fill="#323232" font-weight="400" align="top" lineHeight="16px" font-style="" opacity="1" y="644.075" transform="rotate(0)"><tspan id="SvgjsTspan1479" dy="16" x="601"><tspan id="SvgjsTspan1480" style="text-decoration:;">是</tspan></tspan></text></g><g id="SvgjsG1481" transform="translate(829,236)"><path id="SvgjsPath1482" d="M0 0L100 0L100 70L0 70Z " stroke="rgba(50,50,50,1)" stroke-width="2" fill-opacity="1" fill="#ffcdd2"></path><g id="SvgjsG1483"><text id="SvgjsText1484" font-family="微软雅黑" text-anchor="middle" font-size="13px" width="80px" fill="#323232" font-weight="400" align="middle" lineHeight="125%" font-style="" opacity="1" y="16.375" transform="rotate(0)"><tspan id="SvgjsTspan1485" dy="16" x="50"><tspan id="SvgjsTspan1486" style="text-decoration:;">注册未申完客</tspan></tspan><tspan id="SvgjsTspan1487" dy="16" x="50"><tspan id="SvgjsTspan1488" style="text-decoration:;">户</tspan></tspan></text></g></g><g id="SvgjsG1489" transform="translate(829,323)"><path id="SvgjsPath1490" d="M0 0L100 0L100 70L0 70Z " stroke="rgba(50,50,50,1)" stroke-width="2" fill-opacity="1" fill="#ffcdd2"></path><g id="SvgjsG1491"><text id="SvgjsText1492" font-family="微软雅黑" text-anchor="middle" font-size="13px" width="80px" fill="#323232" font-weight="400" align="middle" lineHeight="125%" font-style="" opacity="1" y="16.375" transform="rotate(0)"><tspan id="SvgjsTspan1493" dy="16" x="50"><tspan id="SvgjsTspan1494" style="text-decoration:;">申完未审完客</tspan></tspan><tspan id="SvgjsTspan1495" dy="16" x="50"><tspan id="SvgjsTspan1496" style="text-decoration:;">户</tspan></tspan></text></g></g><g id="SvgjsG1497" transform="translate(829,418.25)"><path id="SvgjsPath1498" d="M0 0L100 0L100 70L0 70Z " stroke="rgba(50,50,50,1)" stroke-width="2" fill-opacity="1" fill="#ffffff"></path><g id="SvgjsG1499"><text id="SvgjsText1500" font-family="微软雅黑" text-anchor="middle" font-size="13px" width="80px" fill="#323232" font-weight="400" align="middle" lineHeight="125%" font-style="" opacity="1" y="24.375" transform="rotate(0)"><tspan id="SvgjsTspan1501" dy="16" x="50"><tspan id="SvgjsTspan1502" style="text-decoration:;">审完</tspan></tspan></text></g></g><g id="SvgjsG1503"><path id="SvgjsPath1504" d="M727 358L777.5 358L777.5 271L825.4 271 " stroke="#323232" stroke-width="2" fill="none" marker-end="url(#SvgjsMarker1505)"></path></g><g id="SvgjsG1507"><path id="SvgjsPath1508" d="M727 358L777.5 358L777.5 358L825.4 358 " stroke="#323232" stroke-width="2" fill="none" marker-end="url(#SvgjsMarker1509)"></path></g><g id="SvgjsG1511"><path id="SvgjsPath1512" d="M727 358L777.5 358L777.5 453.25L825.4 453.25 " stroke="#323232" stroke-width="2" fill="none" marker-end="url(#SvgjsMarker1513)"></path></g><g id="SvgjsG1515" transform="translate(1183,668.25)"><path id="SvgjsPath1516" d="M0 35L45 0L90 35L45 70L0 35Z " stroke="rgba(50,50,50,1)" stroke-width="2" fill-opacity="1" fill="#ffffff"></path><g id="SvgjsG1517"><text id="SvgjsText1518" font-family="微软雅黑" text-anchor="middle" font-size="13px" width="70px" fill="#323232" font-weight="400" align="middle" lineHeight="125%" font-style="" opacity="1" y="24.375" transform="rotate(0)"><tspan id="SvgjsTspan1519" dy="16" x="45"><tspan id="SvgjsTspan1520" style="text-decoration:;">借款审核</tspan></tspan></text></g></g><g id="SvgjsG1521" transform="translate(1319.5,675.998592870544)"><path id="SvgjsPath1522" d="M0 0L100.5 0L100.5 54.502814258911826L0 54.502814258911826Z " stroke="rgba(50,50,50,1)" stroke-width="2" fill-opacity="1" fill="#ffcdd2"></path><g id="SvgjsG1523"><text id="SvgjsText1524" font-family="微软雅黑" text-anchor="middle" font-size="13px" width="81px" fill="#323232" font-weight="400" align="middle" lineHeight="125%" font-style="" opacity="1" y="16.626407129455913" transform="rotate(0)"><tspan id="SvgjsTspan1525" dy="16" x="50.5"><tspan id="SvgjsTspan1526" style="text-decoration:;">借款审核失败</tspan></tspan></text></g></g><g id="SvgjsG1527" transform="translate(1319.5,746.4971857410882)"><path id="SvgjsPath1528" d="M0 0L100.5 0L100.5 54.502814258911826L0 54.502814258911826Z " stroke="rgba(50,50,50,1)" stroke-width="2" fill-opacity="1" fill="#ffffff"></path><g id="SvgjsG1529"><text id="SvgjsText1530" font-family="微软雅黑" text-anchor="middle" font-size="13px" width="81px" fill="#323232" font-weight="400" align="middle" lineHeight="125%" font-style="" opacity="1" y="16.626407129455913" transform="rotate(0)"><tspan id="SvgjsTspan1531" dy="16" x="50.5"><tspan id="SvgjsTspan1532" style="text-decoration:;">审核通过</tspan></tspan></text></g></g><g id="SvgjsG1533"><path id="SvgjsPath1534" d="M1274 703.25L1296.25 703.25L1296.25 703.25L1315.9 703.25 " stroke="#323232" stroke-width="2" fill="none" marker-end="url(#SvgjsMarker1535)"></path></g><g id="SvgjsG1537"><path id="SvgjsPath1538" d="M1274 703.25L1296.25 703.25L1296.25 773.7485928705441L1315.9 773.7485928705441 " stroke="#323232" stroke-width="2" fill="none" marker-end="url(#SvgjsMarker1539)"></path></g><g id="SvgjsG1541" transform="translate(758,861)"><path id="SvgjsPath1542" d="M0 35L45 0L90 35L45 70L0 35Z " stroke="rgba(50,50,50,1)" stroke-width="2" fill-opacity="1" fill="#ffffff"></path><g id="SvgjsG1543"><text id="SvgjsText1544" font-family="微软雅黑" text-anchor="middle" font-size="13px" width="70px" fill="#323232" font-weight="400" align="middle" lineHeight="125%" font-style="" opacity="1" y="24.375" transform="rotate(0)"><tspan id="SvgjsTspan1545" dy="16" x="45"><tspan id="SvgjsTspan1546" style="text-decoration:;">轻重资产</tspan></tspan></text></g></g><g id="SvgjsG1547"><path id="SvgjsPath1548" d="M727 896L742 896L742 896L754.4 896 " stroke="#323232" stroke-width="2" fill="none" marker-end="url(#SvgjsMarker1549)"></path></g><g id="SvgjsG1551" transform="translate(885,830)"><path id="SvgjsPath1552" d="M0 0L146 0L146 70L0 70Z " stroke="rgba(50,50,50,1)" stroke-width="2" fill-opacity="1" fill="#ffcdd2"></path><g id="SvgjsG1553"><text id="SvgjsText1554" font-family="微软雅黑" text-anchor="middle" font-size="13px" width="126px" fill="#323232" font-weight="400" align="middle" lineHeight="125%" font-style="" opacity="1" y="8.375" transform="rotate(0)"><tspan id="SvgjsTspan1555" dy="16" x="73"><tspan id="SvgjsTspan1556" style="text-decoration:;">轻资产客户（名下仅</tspan></tspan><tspan id="SvgjsTspan1557" dy="16" x="73"><tspan id="SvgjsTspan1558" style="text-decoration:;">有轻资产成功再借订</tspan></tspan><tspan id="SvgjsTspan1559" dy="16" x="73"><tspan id="SvgjsTspan1560" style="text-decoration:;">单客户）</tspan></tspan></text></g></g><g id="SvgjsG1561" transform="translate(885,940)"><path id="SvgjsPath1562" d="M0 0L100 0L100 70L0 70Z " stroke="rgba(50,50,50,1)" stroke-width="2" fill-opacity="1" fill="#ffffff"></path><g id="SvgjsG1563"><text id="SvgjsText1564" font-family="微软雅黑" text-anchor="middle" font-size="13px" width="80px" fill="#323232" font-weight="400" align="middle" lineHeight="125%" font-style="" opacity="1" y="24.375" transform="rotate(0)"><tspan id="SvgjsTspan1565" dy="16" x="50"><tspan id="SvgjsTspan1566" style="text-decoration:;">重资产客户</tspan></tspan></text></g></g><g id="SvgjsG1567"><path id="SvgjsPath1568" d="M849 896L866.5 896L866.5 865L881.4 865 " stroke="#323232" stroke-width="2" fill="none" marker-end="url(#SvgjsMarker1569)"></path></g><g id="SvgjsG1571"><path id="SvgjsPath1572" d="M849 896L866.5 896L866.5 975L881.4 975 " stroke="#323232" stroke-width="2" fill="none" marker-end="url(#SvgjsMarker1573)"></path></g><g id="SvgjsG1575" transform="translate(1031,940)"><path id="SvgjsPath1576" d="M0 35L60.75 0L121.5 35L60.75 70L0 35Z " stroke="rgba(50,50,50,1)" stroke-width="2" fill-opacity="1" fill="#ffffff"></path><g id="SvgjsG1577"><text id="SvgjsText1578" font-family="微软雅黑" text-anchor="middle" font-size="13px" width="102px" fill="#323232" font-weight="400" align="middle" lineHeight="125%" font-style="" opacity="1" y="16.375" transform="rotate(0)"><tspan id="SvgjsTspan1579" dy="16" x="61"><tspan id="SvgjsTspan1580" style="text-decoration:;">是否逾期</tspan></tspan><tspan id="SvgjsTspan1581" dy="16" x="61"><tspan id="SvgjsTspan1582" style="text-decoration:;">（实时状态）</tspan></tspan></text></g></g><g id="SvgjsG1583" transform="translate(1227,900)"><path id="SvgjsPath1584" d="M0 0L105 0L105 65L0 65Z " stroke="rgba(50,50,50,1)" stroke-width="2" fill-opacity="1" fill="#ffcdd2"></path><g id="SvgjsG1585"><text id="SvgjsText1586" font-family="微软雅黑" text-anchor="middle" font-size="13px" width="85px" fill="#323232" font-weight="400" align="middle" lineHeight="125%" font-style="" opacity="1" y="5.875" transform="rotate(0)"><tspan id="SvgjsTspan1587" dy="16" x="52.5"><tspan id="SvgjsTspan1588" style="text-decoration:;">有逾期订单客</tspan></tspan><tspan id="SvgjsTspan1589" dy="16" x="52.5"><tspan id="SvgjsTspan1590" style="text-decoration:;">户（包含出</tspan></tspan><tspan id="SvgjsTspan1591" dy="16" x="52.5"><tspan id="SvgjsTspan1592" style="text-decoration:;">让）</tspan></tspan></text></g></g><g id="SvgjsG1593"><path id="SvgjsPath1594" d="M1153.5 975L1189.75 975L1189.75 932.5L1223.4 932.5 " stroke="#323232" stroke-width="2" fill="none" marker-end="url(#SvgjsMarker1595)"></path><rect id="SvgjsRect1597" width="13" height="16" x="1183.25" y="947.05" fill="#ffffff"></rect><text id="SvgjsText1598" font-family="微软雅黑" text-anchor="middle" font-size="13px" width="13px" fill="#323232" font-weight="400" align="top" lineHeight="16px" font-style="" opacity="1" y="944.425" transform="rotate(0)"><tspan id="SvgjsTspan1599" dy="16" x="1189.75"><tspan id="SvgjsTspan1600" style="text-decoration:;">是</tspan></tspan></text></g><g id="SvgjsG1601" transform="translate(1227,989)"><path id="SvgjsPath1602" d="M0 0L100 0L100 70L0 70Z " stroke="rgba(50,50,50,1)" stroke-width="2" fill-opacity="1" fill="#ffcdd2"></path><g id="SvgjsG1603"><text id="SvgjsText1604" font-family="微软雅黑" text-anchor="middle" font-size="13px" width="80px" fill="#323232" font-weight="400" align="middle" lineHeight="125%" font-style="" opacity="1" y="16.375" transform="rotate(0)"><tspan id="SvgjsTspan1605" dy="16" x="50"><tspan id="SvgjsTspan1606" style="text-decoration:;">仅有未逾期订</tspan></tspan><tspan id="SvgjsTspan1607" dy="16" x="50"><tspan id="SvgjsTspan1608" style="text-decoration:;">单客户</tspan></tspan></text></g></g><g id="SvgjsG1609"><path id="SvgjsPath1610" d="M1153.5 975L1189.75 975L1189.75 1024L1223.4 1024 " stroke="#323232" stroke-width="2" fill="none" marker-end="url(#SvgjsMarker1611)"></path><rect id="SvgjsRect1613" width="13" height="16" x="1183.25" y="990.2" fill="#ffffff"></rect><text id="SvgjsText1614" font-family="微软雅黑" text-anchor="middle" font-size="13px" width="13px" fill="#323232" font-weight="400" align="top" lineHeight="16px" font-style="" opacity="1" y="987.575" transform="rotate(0)"><tspan id="SvgjsTspan1615" dy="16" x="1189.75"><tspan id="SvgjsTspan1616" style="text-decoration:;">否</tspan></tspan></text></g><g id="SvgjsG1617" transform="translate(943,243)"><path id="SvgjsPath1618" d="M0 150Q3 150 3 141L3 84Q3 75 22 75Q3 75 3 66L3 9Q3 0 0 0 " stroke="rgba(50,50,50,1)" stroke-width="2" fill="none"></path><path id="SvgjsPath1619" d="M0 0L30 0L30 150L0 150Z " stroke="none" fill="none"></path><g id="SvgjsG1620"><text id="SvgjsText1621" font-family="微软雅黑" text-anchor="start" font-size="13px" width="3px" fill="#323232" font-weight="400" align="middle" lineHeight="125%" font-style="" opacity="1" y="64.375" transform="rotate(0)"></text></g></g><g id="SvgjsG1622" transform="translate(1641,524.5)"><path id="SvgjsPath1623" d="M0 0L253 0L253 122L0 122Z " stroke="rgba(255,255,255,1)" stroke-width="2" fill-opacity="1" fill="#fff9c4"></path><g id="SvgjsG1624"><text id="SvgjsText1625" font-family="微软雅黑" text-anchor="middle" font-size="13px" width="233px" fill="#323232" font-weight="400" align="middle" lineHeight="125%" font-style="" opacity="1" y="34.375" transform="rotate(0)"><tspan id="SvgjsTspan1626" dy="16" x="126.5"><tspan id="SvgjsTspan1627" style="text-decoration:;">存在无借款注销客户亲情况，注销用</tspan></tspan><tspan id="SvgjsTspan1628" dy="16" x="126.5"><tspan id="SvgjsTspan1629" style="text-decoration:;">户，客户状态不改变，以客户注销的时</tspan></tspan><tspan id="SvgjsTspan1630" dy="16" x="126.5"><tspan id="SvgjsTspan1631" style="text-decoration:;">候状态为准，一般是有额度未借款</tspan></tspan></text></g></g><g id="SvgjsG1632"><path id="SvgjsPath1633" d="M248 337L293.5 337L293.5 130L336.4 130 " stroke="#323232" stroke-width="2" fill="none" marker-end="url(#SvgjsMarker1634)"></path></g><g id="SvgjsG1636"><path id="SvgjsPath1637" d="M986 975L1008 975L1008 975L1027.4 975 " stroke="#323232" stroke-width="2" fill="none" marker-end="url(#SvgjsMarker1638)"></path></g><g id="SvgjsG1640" transform="translate(1058.5,683.0000000000001)"><path id="SvgjsPath1641" d="M0 0L94 0L94 40.5L0 40.5Z " stroke="rgba(50,50,50,1)" stroke-width="2" fill-opacity="1" fill="#ffffff"></path><g id="SvgjsG1642"><text id="SvgjsText1643" font-family="微软雅黑" text-anchor="middle" font-size="13px" width="74px" fill="#323232" font-weight="400" align="middle" lineHeight="125%" font-style="" opacity="1" y="-6.375" transform="rotate(0)"><tspan id="SvgjsTspan1644" dy="16" x="47"><tspan id="SvgjsTspan1645" style="text-decoration:;">可用额度</tspan></tspan><tspan id="SvgjsTspan1646" dy="16" x="47"><tspan id="SvgjsTspan1647" style="text-decoration:;">&gt;=0发起借</tspan></tspan><tspan id="SvgjsTspan1648" dy="16" x="47"><tspan id="SvgjsTspan1649" style="text-decoration:;">款</tspan></tspan></text></g></g><g id="SvgjsG1650"><path id="SvgjsPath1651" d="M1153.5 703.2500000000001L1167.75 703.2500000000001L1167.75 703.25L1179.4 703.25 " stroke="#323232" stroke-width="2" fill="none" marker-end="url(#SvgjsMarker1652)"></path></g><g id="SvgjsG1654" transform="translate(1319.5,599.5)"><path id="SvgjsPath1655" d="M0 0L100.5 0L100.5 54.502814258911826L0 54.502814258911826Z " stroke="rgba(50,50,50,1)" stroke-width="2" fill-opacity="1" fill="#ffcdd2"></path><g id="SvgjsG1656"><text id="SvgjsText1657" font-family="微软雅黑" text-anchor="middle" font-size="13px" width="81px" fill="#323232" font-weight="400" align="middle" lineHeight="125%" font-style="" opacity="1" y="16.626407129455913" transform="rotate(0)"><tspan id="SvgjsTspan1658" dy="16" x="50.5"><tspan id="SvgjsTspan1659" style="text-decoration:;">借款审核中</tspan></tspan></text></g></g><g id="SvgjsG1660"><path id="SvgjsPath1661" d="M1274 703.25L1296.25 703.25L1296.25 626.7514071294559L1315.9 626.7514071294559 " stroke="#323232" stroke-width="2" fill="none" marker-end="url(#SvgjsMarker1662)"></path></g><g id="SvgjsG1664" transform="translate(1608,258)"><path id="SvgjsPath1665" d="M0 764Q2 764 2 755L2 391Q2 382 22 382Q2 382 2 373L2 9Q2 0 0 0 " stroke="rgba(50,50,50,1)" stroke-width="2" fill="none"></path><path id="SvgjsPath1666" d="M0 0L20 0L20 764L0 764Z " stroke="none" fill="none"></path><g id="SvgjsG1667"><text id="SvgjsText1668" font-family="微软雅黑" text-anchor="start" font-size="13px" width="0" fill="#323232" font-weight="400" align="middle" lineHeight="125%" font-style="" opacity="1" y="371.375" transform="rotate(0)"></text></g></g><g id="SvgjsG1669" transform="translate(967,291)"><path id="SvgjsPath1670" d="M0 0L102 0L102 51L0 51Z " stroke="rgba(255,255,255,1)" stroke-width="2" fill-opacity="1" fill="#fff9c4"></path><g id="SvgjsG1671"><text id="SvgjsText1672" font-family="微软雅黑" text-anchor="middle" font-size="13px" width="82px" fill="#323232" font-weight="400" align="middle" lineHeight="125%" font-style="" opacity="1" y="14.875" transform="rotate(0)"><tspan id="SvgjsTspan1673" dy="16" x="51"><tspan id="SvgjsTspan1674" style="text-decoration:;">未申完</tspan></tspan></text></g></g><g id="SvgjsG1675" transform="translate(1480.75,584.25)"><path id="SvgjsPath1676" d="M0 0L102 0L102 51L0 51Z " stroke="rgba(255,255,255,1)" stroke-width="2" fill-opacity="1" fill="#fff9c4"></path><g id="SvgjsG1677"><text id="SvgjsText1678" font-family="微软雅黑" text-anchor="middle" font-size="13px" width="82px" fill="#323232" font-weight="400" align="middle" lineHeight="125%" font-style="" opacity="1" y="14.875" transform="rotate(0)"><tspan id="SvgjsTspan1679" dy="16" x="51"><tspan id="SvgjsTspan1680" style="text-decoration:;">有额度未借款</tspan></tspan></text></g></g><g id="SvgjsG1681" transform="translate(979,496.75)"><path id="SvgjsPath1682" d="M0 0L106 0L106 40L0 40Z " stroke="rgba(50,50,50,1)" stroke-width="2" fill-opacity="1" fill="#ffffff"></path><g id="SvgjsG1683"><text id="SvgjsText1684" font-family="微软雅黑" text-anchor="middle" font-size="13px" width="86px" fill="#323232" font-weight="400" align="middle" lineHeight="125%" font-style="" opacity="1" y="1.375" transform="rotate(0)"><tspan id="SvgjsTspan1685" dy="16" x="53"><tspan id="SvgjsTspan1686" style="text-decoration:;">轻重可用额度</tspan></tspan><tspan id="SvgjsTspan1687" dy="16" x="53"><tspan id="SvgjsTspan1688" style="text-decoration:;">&gt;=0</tspan></tspan></text></g></g><g id="SvgjsG1689"><path id="SvgjsPath1690" d="M930 453.25L954 453.25L954 516.75L975.4000000000001 516.75 " stroke="#323232" stroke-width="2" fill="none" marker-end="url(#SvgjsMarker1691)"></path><rect id="SvgjsRect1693" width="26" height="16" x="941" y="475.70000000000005" fill="#ffffff"></rect><text id="SvgjsText1694" font-family="微软雅黑" text-anchor="middle" font-size="13px" width="26px" fill="#323232" font-weight="400" align="top" lineHeight="16px" font-style="" opacity="1" y="473.07500000000005" transform="rotate(0)"><tspan id="SvgjsTspan1695" dy="16" x="954"><tspan id="SvgjsTspan1696" style="text-decoration:;">成功</tspan></tspan></text></g><g id="SvgjsG1697" transform="translate(979,393)"><path id="SvgjsPath1698" d="M0 0L106 0L106 40L0 40Z " stroke="rgba(50,50,50,1)" stroke-width="2" fill-opacity="1" fill="#ffcdd2"></path><g id="SvgjsG1699"><text id="SvgjsText1700" font-family="微软雅黑" text-anchor="middle" font-size="13px" width="86px" fill="#323232" font-weight="400" align="middle" lineHeight="125%" font-style="" opacity="1" y="1.375" transform="rotate(0)"><tspan id="SvgjsTspan1701" dy="16" x="53"><tspan id="SvgjsTspan1702" style="text-decoration:;">轻重无授信额</tspan></tspan><tspan id="SvgjsTspan1703" dy="16" x="53"><tspan id="SvgjsTspan1704" style="text-decoration:;">度</tspan></tspan></text></g></g><g id="SvgjsG1705"><path id="SvgjsPath1706" d="M930 453.25L954 453.25L954 415.75L975.4000000000001 415.75 " stroke="#323232" stroke-width="2" fill="none" marker-end="url(#SvgjsMarker1707)"></path><rect id="SvgjsRect1709" width="26" height="16" x="941" y="427.79999999999995" fill="#ffffff"></rect><text id="SvgjsText1710" font-family="微软雅黑" text-anchor="middle" font-size="13px" width="26px" fill="#323232" font-weight="400" align="top" lineHeight="16px" font-style="" opacity="1" y="425.17499999999995" transform="rotate(0)"><tspan id="SvgjsTspan1711" dy="16" x="954"><tspan id="SvgjsTspan1712" style="text-decoration:;">失败</tspan></tspan></text></g><g id="SvgjsG1713" transform="translate(1448.875,496.75)"><path id="SvgjsPath1714" d="M0 226Q2 226 2 217L2 122Q2 113 22 113Q2 113 2 104L2 9Q2 0 0 0 " stroke="rgba(50,50,50,1)" stroke-width="2" fill="none"></path><path id="SvgjsPath1715" d="M0 0L20 0L20 226L0 226Z " stroke="none" fill="none"></path><g id="SvgjsG1716"><text id="SvgjsText1717" font-family="微软雅黑" text-anchor="start" font-size="13px" width="0" fill="#323232" font-weight="400" align="middle" lineHeight="125%" font-style="" opacity="1" y="102.375" transform="rotate(0)"></text></g></g><g id="SvgjsG1718" transform="translate(1139.5,387.5)"><path id="SvgjsPath1719" d="M0 0L102 0L102 51L0 51Z " stroke="rgba(255,255,255,1)" stroke-width="2" fill-opacity="1" fill="#fff9c4"></path><g id="SvgjsG1720"><text id="SvgjsText1721" font-family="微软雅黑" text-anchor="middle" font-size="13px" width="82px" fill="#323232" font-weight="400" align="middle" lineHeight="125%" font-style="" opacity="1" y="14.875" transform="rotate(0)"><tspan id="SvgjsTspan1722" dy="16" x="51"><tspan id="SvgjsTspan1723" style="text-decoration:;">双被拒</tspan></tspan></text></g></g><g id="SvgjsG1724" transform="translate(1184,488.375)"><path id="SvgjsPath1725" d="M0 0L118 0L118 56.75L0 56.75Z " stroke="rgba(50,50,50,1)" stroke-width="2" fill-opacity="1" fill="#ffcdd2"></path><g id="SvgjsG1726"><text id="SvgjsText1727" font-family="微软雅黑" text-anchor="middle" font-size="13px" width="98px" fill="#323232" font-weight="400" align="middle" lineHeight="125%" font-style="" opacity="1" y="9.75" transform="rotate(0)"><tspan id="SvgjsTspan1728" dy="16" x="59"><tspan id="SvgjsTspan1729" style="text-decoration:;">可用额度&gt;=0未</tspan></tspan><tspan id="SvgjsTspan1730" dy="16" x="59"><tspan id="SvgjsTspan1731" style="text-decoration:;">发起借款</tspan></tspan></text></g></g><g id="SvgjsG1732"><path id="SvgjsPath1733" d="M1086 516.75L1134.5 516.75L1134.5 516.75L1180.4 516.75 " stroke="#323232" stroke-width="2" fill="none" marker-end="url(#SvgjsMarker1734)"></path></g><g id="SvgjsG1736"><path id="SvgjsPath1737" d="M1086 516.75L1105.5 516.75L1105.5 679.4000000000001 " stroke="#323232" stroke-width="2" fill="none" marker-end="url(#SvgjsMarker1738)"></path></g><g id="SvgjsG1740" transform="translate(1112,388.25)"><path id="SvgjsPath1741" d="M0 49.5Q2.15 49.5 2.15 44.55L2.15 29.7Q2.15 24.75 22 24.75Q2.15 24.75 2.15 19.8L2.15 4.95Q2.15 0 0 0 " stroke="rgba(50,50,50,1)" stroke-width="2" fill="none"></path><path id="SvgjsPath1742" d="M0 0L21.5 0L21.5 49.5L0 49.5Z " stroke="none" fill="none"></path><g id="SvgjsG1743"><text id="SvgjsText1744" font-family="微软雅黑" text-anchor="start" font-size="13px" width="0" fill="#323232" font-weight="400" align="middle" lineHeight="125%" font-style="" opacity="1" y="14.125" transform="rotate(0)"></text></g></g></svg>